<svg aria-hidden="true" style="position: absolute; width: 0; height: 0; overflow: hidden;" version="1.1" xmlns="http://www.w3.org/2000/svg" xmlns:xlink="http://www.w3.org/1999/xlink">
<defs>

<symbol id="icon-logo" viewBox="0 0 961 961">
<path d="M825.4,503.05c0,1.801,0.1,3.6,0.1,5.201c0,13.799-3.9,27.299-11.699,40.199c-6.801,11.199-16.5,22-29,32
		c-22.4,18-53.801,33.9-93.201,47.199c-78,26.4-181.1,41-290.5,41c-107.9,0-191.5-14.199-248.3-42.299
		c-9.6-4.701-18.4-9.9-26.4-15.4C49.9,652.751,0,695.751,0,728.251c0,90,215.3,163.1,480.9,163.1s480.901-73,480.901-163.1
		C961.801,663.649,937.199,557.751,825.4,503.05z M742.6,808.351c-95.699,21.799-178.5,16.5-185-11.801
		c-6.4-28.299,119.4-113.1,215.1-134.9c95.701-21.799,125.102,27.801,131.5,56C910.699,746.05,838.301,786.649,742.6,808.351z"/>
	<path d="M151.8,597.649c48.9,28.201,129.6,46.102,249.2,46.102c220.6,0,399.401-60.701,399.401-135.5
		c0-5.102-0.201-10.5-0.6-16.201c-2.701-36.7-15-83.6-49.201-122.799c-60.6,20-137.5,30.899-218.5,30.899
		c-87.6,0-170.299-12.8-233-35.899c-9.601-3.5-18.6-7.301-27-11.2c-105.4,47.5-180.2,112.3-180.2,155.201
		C91.9,542.45,110.5,573.751,151.8,597.649z M643.301,449.15c55.5-12.6,82.1,6.4,93.898,26c3.801,6.3,6.102,12.701,7.301,18.101
		c5,22.1-50.5,53.5-123.9,70.199s-137.1,12.4-142.1-9.699C474.8,537.55,525.9,497.649,582.4,471.05
		C602.699,461.35,623.801,453.55,643.301,449.15z"/>
	<path d="M272.8,325.45c4.7,2.5,9.7,4.9,14.9,7.2c5.3,2.4,10.8,4.6,16.5,6.8c57.7,22,138.4,35.7,227.8,35.7
		c75.1,0,144.1-9.7,198.4-25.8c4.699-1.4,9.4-2.9,13.9-4.4s8.898-3.1,13.199-4.7c56.699-21.2,91.6-50.3,91.6-82.5
		c0-64.8-252.5-187.3-427.7-187.3c-175.2,0-206.5,122.6-206.5,187.4C214.9,283.05,236.4,306.35,272.8,325.45z M605.801,271.45
		c3-16.4,14.398-33.9,45.299-42c12.301-3.2,26.5-4.6,41-4.6c43.201,0,88.801,12.4,92.301,26c4.5,17.4-28.301,41.1-74.201,54.2
		c-2,0.6-4,1.1-6,1.6c-4.199,1.1-8.299,2-12.299,2.9c-8,1.6-15.801,2.8-23.1,3.5c-5.9,0.6-11.602,0.9-17,0.9
		c-24.4,0-42-6-44.801-17.1v-0.1c-0.9-3.7-1.699-8.1-1.9-12.9C604.801,279.95,605,275.75,605.801,271.45z"/>
</symbol>

<symbol id="icon-bus" viewBox="0 0 501.333 501.333">
  <g>
	<g>
		<path d="M433.066,58.667H195.2C87.466,58.667,0,146.134,0,253.867V316.8c0,37.333,29.867,67.2,67.2,68.267
			c9.6,33.067,39.467,57.6,75.733,57.6s67.2-24.533,75.733-57.6c1.067,0,2.133,0,3.2,0h60.8c9.6,33.067,39.467,57.6,75.733,57.6
			c35.2,0,66.133-24.533,75.733-57.6c36.267-1.067,67.2-30.933,67.2-69.333v-188.8C501.333,89.6,470.4,58.667,433.066,58.667z
			 M195.2,100.267h104.533V163.2H195.2V100.267z M152.533,106.667v64l-105.6,44.8C60.8,163.2,101.333,121.6,152.533,106.667z
			 M142.933,401.067c-20.267,0-37.333-17.067-37.333-37.333s17.067-37.333,37.333-37.333c21.333,0,37.333,17.067,37.333,37.333
			S163.2,401.067,142.933,401.067z M358.4,401.067c-20.267,0-37.333-17.067-37.333-37.333S338.133,326.4,358.4,326.4
			s37.333,17.067,37.333,37.333S378.666,401.067,358.4,401.067z M459.733,315.734c0,14.933-10.667,25.6-25.6,26.667
			c-9.6-33.067-39.467-57.6-75.733-57.6s-67.2,24.533-75.733,57.6h-60.8c-1.067,0-2.133,0-3.2,0
			c-9.6-33.067-39.467-57.6-75.733-57.6S76.799,309.334,67.2,342.4c-13.867-1.067-24.533-12.8-24.533-26.667v-52.267l134.4-57.6
			h282.667V315.734z M459.733,163.2H342.4v-62.933h90.667c14.933,0,26.667,11.733,26.667,26.667V163.2z"/>
	</g>
</g>
</symbol>

<symbol id="icon-beach" viewBox="0 0 215.796 215.796">
<path d="M6.607,149.629v-28.228c0-1.989,0.79-3.897,2.197-5.303c6.325-6.326,14.736-9.809,23.682-9.809
	c8.945,0,17.356,3.483,23.681,9.809l1.19,1.19c3.493,3.492,8.136,5.416,13.075,5.416c4.939,0,9.582-1.923,13.075-5.416l1.34-1.339
	c6.324-6.325,14.734-9.809,23.681-9.809c8.946,0,17.356,3.484,23.681,9.81l0.816,0.816c3.494,3.494,8.137,5.417,13.077,5.417
	c4.939,0,9.583-1.923,13.075-5.416l0.371-0.371c6.325-6.326,14.736-9.81,23.682-9.81s17.356,3.484,23.682,9.81
	c1.407,1.406,2.197,3.314,2.197,5.303v28.275c-13.515-5.265-29.476-2.458-40.372,8.438l-0.431,0.431
	c-4.284,4.284-9.979,6.643-16.038,6.643c-6.058,0-11.754-2.359-16.037-6.642l-0.951-0.951
	c-14.692-14.691-38.597-14.691-53.291,0.001l-1.553,1.554c-8.844,8.843-23.232,8.843-32.075,0.001l-1.382-1.383
	C36.082,147.171,20.122,144.364,6.607,149.629z M179.343,169.019l-0.431,0.431c-7.117,7.117-16.579,11.037-26.645,11.037
	c-10.065,0-19.527-3.919-26.645-11.037l-0.951-0.951c-8.842-8.841-23.232-8.841-32.075,0.001l-1.553,1.554
	c-7.346,7.346-16.996,11.02-26.646,11.02c-9.649,0-19.298-3.672-26.645-11.019l-1.382-1.383c-8.112-8.111-20.879-8.758-29.764-1.987
	v41.611c0,4.142,3.358,7.5,7.5,7.5h187.5c4.142,0,7.5-3.358,7.5-7.5V167.03C200.224,160.259,187.456,160.906,179.343,169.019z
	 M163.11,31.435c-8.075,0-14.644,6.569-14.644,14.644c0,8.074,6.569,14.643,14.644,14.643c8.074,0,14.643-6.569,14.643-14.643
	C177.753,38.004,171.184,31.435,163.11,31.435z M163.11,66.943c-4.142,0-7.5,3.358-7.5,7.5v10.214c0,4.142,3.358,7.5,7.5,7.5
	s7.5-3.358,7.5-7.5V74.443C170.61,70.301,167.252,66.943,163.11,66.943z M163.11,25.214c4.142,0,7.5-3.358,7.5-7.5V7.5
	c0-4.142-3.358-7.5-7.5-7.5s-7.5,3.358-7.5,7.5v10.214C155.61,21.856,158.968,25.214,163.11,25.214z M142.246,46.079
	c0-4.142-3.358-7.5-7.5-7.5h-10.214c-4.142,0-7.5,3.358-7.5,7.5s3.358,7.5,7.5,7.5h10.214
	C138.888,53.579,142.246,50.221,142.246,46.079z M201.688,38.579h-10.214c-4.142,0-7.5,3.358-7.5,7.5s3.358,7.5,7.5,7.5h10.214
	c4.142,0,7.5-3.358,7.5-7.5S205.831,38.579,201.688,38.579z M137.75,60.832l-7.223,7.223c-2.929,2.929-2.929,7.678,0,10.606
	c1.464,1.464,3.384,2.197,5.303,2.197s3.839-0.732,5.303-2.197l7.223-7.223c2.929-2.929,2.929-7.678,0-10.606
	C145.428,57.903,140.679,57.903,137.75,60.832z M183.167,33.522c1.919,0,3.839-0.732,5.303-2.197l7.223-7.223
	c2.929-2.929,2.929-7.678,0-10.606c-2.929-2.929-7.678-2.929-10.606,0l-7.223,7.223c-2.929,2.929-2.929,7.678,0,10.606
	C179.328,32.79,181.247,33.522,183.167,33.522z M137.75,31.325c1.464,1.464,3.384,2.197,5.303,2.197s3.839-0.732,5.303-2.197
	c2.929-2.929,2.929-7.678,0-10.606l-7.223-7.223c-2.929-2.929-7.678-2.929-10.606,0c-2.929,2.929-2.929,7.678,0,10.606
	L137.75,31.325z M188.47,60.832c-2.929-2.929-7.678-2.929-10.606,0c-2.929,2.929-2.929,7.678,0,10.606l7.223,7.223
	c1.464,1.464,3.384,2.197,5.303,2.197s3.839-0.732,5.303-2.197c2.929-2.929,2.929-7.678,0-10.606L188.47,60.832z"/>

</symbol>

<symbol id="icon-jacuzzi" viewBox="0 0 247.313 247.313">
<g>
	<g>
		<path d="M36.833,118.743c0.903,0.784,2.016,1.167,3.125,1.167c1.339,0,2.672-0.56,3.615-1.65
			c0.74-0.854,17.978-21.104,4.907-37.558c-7.25-9.129-1.897-14.433-0.726-15.422c2.025-1.647,2.354-4.63,0.721-6.681
			c-1.646-2.07-4.655-2.403-6.716-0.761c-5.008,3.993-11.617,15.147-0.763,28.81c8.139,10.242-4.527,25.214-4.651,25.356
			C34.625,113.999,34.835,117.019,36.833,118.743z"/>
		<path d="M78.649,99.626c0.903,0.784,2.016,1.167,3.125,1.167c1.339,0,2.672-0.56,3.614-1.65
			c0.74-0.854,17.978-21.104,4.908-37.559c-7.25-9.128-1.897-14.433-0.726-15.422c2.025-1.647,2.354-4.63,0.721-6.681
			c-1.645-2.07-4.651-2.404-6.716-0.761c-5.008,3.993-11.617,15.147-0.763,28.81c8.14,10.242-4.527,25.214-4.651,25.356
			C76.442,94.883,76.652,97.902,78.649,99.626z"/>
		<path d="M115.669,99.626c0.903,0.784,2.016,1.167,3.125,1.167c1.339,0,2.672-0.56,3.612-1.65
			c0.742-0.854,17.98-21.104,4.91-37.559c-7.25-9.128-1.893-14.433-0.728-15.422c2.028-1.647,2.357-4.63,0.723-6.681
			c-1.645-2.07-4.655-2.404-6.716-0.761c-5.008,3.993-11.616,15.147-0.763,28.81c8.137,10.242-4.527,25.214-4.651,25.356
			C113.461,94.883,113.676,97.902,115.669,99.626z"/>
		<circle cx="212.865" cy="88.353" r="26.285"/>
		<path d="M28.67,209.635h189.969c15.816,0,28.675-12.863,28.675-28.675v-27.209c0-5.47-5.396-9.778-13.895-13.189
			c-0.051,1.689-0.271,3.389-0.686,5.078c-0.354,1.451-0.742,2.852-1.144,4.224c3.322,1.367,5.367,2.688,6.049,3.846
			c-0.094,0.172-0.257,0.35-0.411,0.531c-0.159,0.188-0.284,0.369-0.509,0.565c-0.247,0.215-0.598,0.438-0.924,0.658
			c-0.294,0.2-0.556,0.396-0.92,0.606c-0.401,0.224-0.9,0.457-1.381,0.69c-0.42,0.21-0.812,0.416-1.307,0.626
			c-0.047,0.023-0.104,0.042-0.149,0.064c-1.078,0.351-2.222,0.775-3.528,1.345c-1.135,0.499-2.371,0.947-3.585,1.409
			c2.147-4.756,4.252-10.407,5.806-16.773c3.146-12.815-7.354-24.278-19.503-25.004c-2.562-0.154-5.358,0.124-8.229,0.635
			c-4.779-3.311-14.337-8.09-32.138-11.374c3.436-7.507,5.545-17.826-1.727-26.983c-7.248-9.128-1.895-14.433-0.729-15.422
			c2.031-1.647,2.362-4.63,0.729-6.681c-1.647-2.07-4.653-2.404-6.721-0.758c-5.003,3.99-11.611,15.145-0.761,28.808
			c4.942,6.221,2.208,14.178-0.728,19.508c-9.549-1.235-20.909-2.056-34.567-2.147c-0.019,0-0.042,0-0.068,0
			c-5.246,0-9.519,4.24-9.551,9.495c-0.035,5.278,4.214,9.588,9.496,9.621c26.648,0.178,43.272,3.244,53.298,6.269
			c-2.311,1.73-4.462,3.57-6.217,5.544c-2.674,3.02-5.605,6.329-8.605,9.735c-21.567,3.379-34.816-0.942-35.181-1.073
			c-4.95-1.778-10.396,0.774-12.205,5.713c-1.815,4.956,0.733,10.444,5.689,12.255c0.677,0.253,9.362,3.268,23.877,3.52
			c-1.745,2.059-3.043,3.771-4.126,5.307c-3.519-0.01-6.529-0.061-8.689-0.112c-0.453-0.056-0.915-0.107-1.373-0.168
			c-2.977,0.042-5.943,0.089-9.044,0.089c-4.44,0-8.755-0.042-12.951-0.121c-1.577-0.028-3.05-0.084-4.592-0.127
			c-2.553-0.069-5.139-0.125-7.593-0.219c-2.224-0.084-4.322-0.201-6.461-0.304c-1.65-0.079-3.356-0.149-4.957-0.237
			c-2.772-0.164-5.409-0.355-8.039-0.547c-0.85-0.061-1.752-0.111-2.59-0.177c-41.128-3.221-64.298-10.207-66.839-14.725
			c3.397-6.03,43.509-16.452,114.019-16.452c14.08,0,26.887,0.43,38.489,1.139l4.896-5.535c-9.539-2.002-23.573-3.794-43.476-3.92
			c-1.998-0.014-3.895-0.438-5.614-1.194C93.456,128.124,0,130.915,0,153.751v27.209C-0.005,196.771,12.855,209.635,28.67,209.635z"
			/>
	</g>
</g>
</symbol>

<symbol id="icon-key" viewBox="0 0 24 24">
  <path fill-rule="evenodd" clip-rule="evenodd" d="M22 8.29344C22 11.7692 19.1708 14.5869 15.6807 14.5869C15.0439 14.5869 13.5939 14.4405 12.8885 13.8551L12.0067 14.7333C11.4883 15.2496 11.6283 15.4016 11.8589 15.652C11.9551 15.7565 12.0672 15.8781 12.1537 16.0505C12.1537 16.0505 12.8885 17.075 12.1537 18.0995C11.7128 18.6849 10.4783 19.5045 9.06754 18.0995L8.77362 18.3922C8.77362 18.3922 9.65538 19.4167 8.92058 20.4412C8.4797 21.0267 7.30403 21.6121 6.27531 20.5876L5.2466 21.6121C4.54119 22.3146 3.67905 21.9048 3.33616 21.6121L2.45441 20.7339C1.63143 19.9143 2.1115 19.0264 2.45441 18.6849L10.0963 11.0743C10.0963 11.0743 9.3615 9.90338 9.3615 8.29344C9.3615 4.81767 12.1907 2 15.6807 2C19.1708 2 22 4.81767 22 8.29344ZM15.681 10.4889C16.8984 10.4889 17.8853 9.50601 17.8853 8.29353C17.8853 7.08105 16.8984 6.09814 15.681 6.09814C14.4635 6.09814 13.4766 7.08105 13.4766 8.29353C13.4766 9.50601 14.4635 10.4889 15.681 10.4889Z"/>
</symbol>

</defs>
</svg>
